<?xml version="1.0" encoding="UTF-8"?><svg xmlns="http://www.w3.org/2000/svg" viewBox="0 0 300 300" x="0px" y="0px" width="300px" height="300px" xmlns:xlink="http://www.w3.org/1999/xlink" version="1.1"><title>Investment Colored Icons</title><g id="Layer_2" data-name="Layer 2"><path d="M94.49,79.68,58.88,114.91l2.42,69.2-13.91,1.15-.9,14.55,99.41,1.49-8.77,12.51,40.94-.43L167.69,200.7l98.38-.51-2.21-15.83-19.32-1.27s26.38-13.66,21.53-33.09-13.87-44.95-24.94-48.87l9.7-22.47H190.24l10,21.79S179.69,117,177.13,139.77s3.92,30.29,12.43,35.91,6.13,8.51,6.13,8.51L129,183.68l.51-71.32Z" style="fill:#2a94f4;"/><path d="M262.41,185.21H45.73l1.36,13.62h98l-8,15h37.62l-8-13.45,98.38-.85S267.18,185.21,262.41,185.21Z" style="fill:#cce9ff;"/><polygon points="80.2 113.55 81.9 134.75 109.64 133.04 109.64 112.7 80.2 113.55" style="fill:#cce9ff;"/><polygon points="84.23 155.34 84.23 183.51 107.03 183.17 106.24 154.83 84.23 155.34" style="fill:#cce9ff;"/><polygon points="200.28 100.45 239.26 100.45 250.15 77.81 194.49 78.66 200.28 100.45" style="fill:#cce9ff;"/></g><g id="Layer_1" data-name="Layer 1"><path d="M266.66,180.82h-13a33.67,33.67,0,0,0,16.78-30.41c0-16.7-12.19-40.43-25.47-50.61L255.59,80a3.8,3.8,0,0,0-3.33-5.6H189.85a3.81,3.81,0,0,0-3.23,1.79,3.77,3.77,0,0,0-.19,3.68l9.69,19.87c-12.94,10-24.48,33.34-24.48,50.67a33.67,33.67,0,0,0,16.78,30.41H133.64V121.58l8.71,8.72,5.38-5.37L98.32,75.52a3.8,3.8,0,0,0-5.37,0L43.54,124.93l5.38,5.37,8.71-8.72v59.24H46.23a3.8,3.8,0,0,0-3.8,3.8v15.2a3.8,3.8,0,0,0,3.8,3.8h93.44L131,212.34a3.8,3.8,0,0,0,2.69,6.48h45.6a3.79,3.79,0,0,0,2.69-6.48l-8.71-8.72h93.44a3.8,3.8,0,0,0,3.8-3.8v-15.2a3.8,3.8,0,0,0-3.8-3.8ZM195.93,82h50l-8.14,15.2H203.36Zm-16.69,68.4c0-15.45,11.43-38,22.91-45.6h36.76c12,7.87,23.94,30.45,23.94,45.6,0,26.46-26.19,30.41-41.8,30.41s-41.81-3.95-41.81-30.41ZM65.23,114l30.4-30.4L126,114v66.84h-15.2v-26.6a3.82,3.82,0,0,0-3.81-3.81H84.23a3.81,3.81,0,0,0-3.8,3.81v26.6H65.23Zm38,66.84H88V158h15.21Zm39.57,30.4,13.63-13.63,13.63,13.63Zm120-15.2H165.62l-6.49-6.48a3.78,3.78,0,0,0-5.37,0L147.27,196H50v-7.6H262.85Zm0,0" style="fill:#0b4870;"/><path d="M80.43,139h30.41a3.8,3.8,0,0,0,3.8-3.8v-22.8a3.8,3.8,0,0,0-3.8-3.8H80.43a3.8,3.8,0,0,0-3.8,3.8v22.8a3.8,3.8,0,0,0,3.8,3.8Zm26.6-7.6h-7.6v-15.2H107Zm-22.8-15.2h7.6v15.2h-7.6Zm0,0" style="fill:#0b4870;"/><path d="M221.05,131.41a3.8,3.8,0,0,1,3.8,3.8h7.6a11.41,11.41,0,0,0-7.6-10.7V120h-7.6v4.5a11.37,11.37,0,0,0,3.8,22.1,3.81,3.81,0,1,1-3.8,3.8h-7.6a11.41,11.41,0,0,0,7.6,10.71v4.5h7.6v-4.5a11.38,11.38,0,0,0-3.8-22.11,3.8,3.8,0,0,1,0-7.6Zm0,0" style="fill:#0b4870;"/></g></svg>