<?xml version="1.0" encoding="UTF-8"?>
<svg xmlns="http://www.w3.org/2000/svg" xmlns:xlink="http://www.w3.org/1999/xlink" width="375pt" height="374.999991pt" viewBox="0 0 375 374.999991" version="1.2">
<defs>
<clipPath id="clip1">
  <path d="M 132 88.6875 L 285 88.6875 L 285 292.59375 L 132 292.59375 Z M 132 88.6875 "/>
</clipPath>
<clipPath id="clip2">
  <path d="M 38.816406 163 L 136 163 L 136 292.59375 L 38.816406 292.59375 Z M 38.816406 163 "/>
</clipPath>
</defs>
<g id="surface1">
<path style=" stroke:none;fill-rule:nonzero;fill:rgb(6.269836%,5.879211%,5.099487%);fill-opacity:1;" d="M 265.316406 205.335938 C 265.480469 202.726562 267.519531 200.660156 270.128906 200.46875 L 298.523438 198.539062 C 299.609375 198.484375 300.644531 198.867188 301.40625 199.628906 L 343.644531 241.601562 C 345.683594 243.613281 345.683594 246.875 343.644531 248.914062 L 314.1875 278.519531 C 312.175781 280.554688 308.914062 280.554688 306.871094 278.542969 L 264.609375 236.570312 C 263.847656 235.835938 263.464844 234.777344 263.519531 233.71875 L 264.554688 216.835938 C 266.484375 216.917969 268.414062 216.890625 270.347656 216.78125 C 272.195312 221.210938 277.308594 223.277344 281.742188 221.429688 C 286.148438 219.582031 288.242188 214.46875 286.367188 210.039062 C 284.515625 205.636719 279.429688 203.542969 274.996094 205.390625 C 272.660156 206.371094 270.863281 208.328125 270.101562 210.746094 C 268.335938 210.855469 266.539062 210.882812 264.773438 210.828125 L 265.316406 205.335938 "/>
<g clip-path="url(#clip1)" clip-rule="nonzero">
<path style=" stroke:none;fill-rule:nonzero;fill:rgb(6.269836%,5.879211%,5.099487%);fill-opacity:1;" d="M 192.238281 240.1875 L 208.445312 240.1875 L 208.445312 288.03125 L 192.238281 288.03125 Z M 171.375 240.1875 L 187.585938 240.1875 L 187.585938 288.03125 L 171.375 288.03125 Z M 198.628906 201.257812 L 219.570312 201.257812 L 219.570312 222.597656 L 198.628906 222.597656 Z M 160.28125 201.257812 L 181.222656 201.257812 L 181.222656 222.597656 L 160.28125 222.597656 Z M 198.628906 162.738281 L 219.570312 162.738281 L 219.570312 184.078125 L 198.628906 184.078125 Z M 160.28125 162.738281 L 181.222656 162.738281 L 181.222656 184.078125 L 160.28125 184.078125 Z M 198.628906 124.21875 L 219.570312 124.21875 L 219.570312 145.558594 L 198.628906 145.558594 Z M 160.28125 124.21875 L 181.222656 124.21875 L 181.222656 145.558594 L 160.28125 145.558594 Z M 132.375 88.6875 L 132.375 111.25 L 140.019531 111.25 L 140.019531 292.652344 L 239.804688 292.652344 L 239.804688 208.382812 C 249.839844 213.84375 261.34375 216.128906 272.714844 214.960938 C 273.5 218.113281 276.683594 220.070312 279.867188 219.308594 C 283.046875 218.519531 284.980469 215.339844 284.21875 212.160156 C 283.457031 208.980469 280.246094 207.050781 277.066406 207.808594 C 274.917969 208.328125 273.257812 210.011719 272.714844 212.160156 C 261.289062 213.410156 249.730469 210.964844 239.804688 205.171875 L 239.804688 111.25 L 247.445312 111.25 L 247.445312 88.6875 L 132.375 88.6875 "/>
</g>
<g clip-path="url(#clip2)" clip-rule="nonzero">
<path style=" stroke:none;fill-rule:nonzero;fill:rgb(6.269836%,5.879211%,5.099487%);fill-opacity:1;" d="M 62.042969 208.300781 L 127.234375 208.300781 L 127.234375 234.914062 L 62.042969 234.914062 Z M 135.367188 163.769531 L 38.816406 181.792969 L 38.816406 205.171875 L 46.59375 203.707031 L 46.59375 292.652344 L 135.367188 292.652344 L 135.367188 163.769531 "/>
</g>
</g>
</svg>
