<?xml version="1.0" encoding="UTF-8"?>
<svg xmlns="http://www.w3.org/2000/svg" xmlns:xlink="http://www.w3.org/1999/xlink" width="112.5pt" height="149.999998pt" viewBox="0 0 112.5 149.999998" version="1.2">
<defs>
<clipPath id="clip1">
  <path d="M 14 30.332031 L 24 30.332031 L 24 37 L 14 37 Z M 14 30.332031 "/>
</clipPath>
<clipPath id="clip2">
  <path d="M 11.25 43 L 28 43 L 28 115.082031 L 11.25 115.082031 Z M 11.25 43 "/>
</clipPath>
<clipPath id="clip3">
  <path d="M 31 77 L 48 77 L 48 115.082031 L 31 115.082031 Z M 31 77 "/>
</clipPath>
<clipPath id="clip4">
  <path d="M 49 66 L 101.25 66 L 101.25 93 L 49 93 Z M 49 66 "/>
</clipPath>
<clipPath id="clip5">
  <path d="M 56 90 L 95 90 L 95 115.082031 L 56 115.082031 Z M 56 90 "/>
</clipPath>
<clipPath id="clip6">
  <path d="M 69 99 L 82 99 L 82 115.082031 L 69 115.082031 Z M 69 99 "/>
</clipPath>
</defs>
<g id="surface1">
<path style=" stroke:none;fill-rule:nonzero;fill:rgb(2.749634%,58.428955%,100%);fill-opacity:1;" d="M 41.097656 75.554688 L 37.933594 75.554688 C 37.757812 75.554688 37.609375 75.492188 37.484375 75.367188 C 37.359375 75.242188 37.296875 75.089844 37.296875 74.914062 L 37.296875 69.949219 L 41.730469 69.949219 L 41.730469 74.933594 C 41.726562 75.105469 41.664062 75.253906 41.539062 75.375 C 41.414062 75.496094 41.269531 75.554688 41.097656 75.554688 Z M 41.097656 75.554688 "/>
<path style=" stroke:none;fill-rule:nonzero;fill:rgb(2.749634%,58.428955%,100%);fill-opacity:1;" d="M 39.898438 64.949219 L 43.640625 70.609375 C 43.75 70.753906 43.765625 70.910156 43.683594 71.074219 C 43.597656 71.234375 43.464844 71.316406 43.285156 71.308594 L 35.671875 71.308594 C 35.492188 71.308594 35.363281 71.226562 35.277344 71.070312 C 35.195312 70.914062 35.199219 70.761719 35.296875 70.609375 L 39.152344 64.949219 C 39.234375 64.800781 39.359375 64.726562 39.523438 64.726562 C 39.691406 64.726562 39.816406 64.800781 39.898438 64.949219 Z M 39.898438 64.949219 "/>
<path style=" stroke:none;fill-rule:nonzero;fill:rgb(2.749634%,58.428955%,100%);fill-opacity:1;" d="M 20.777344 41.03125 L 17.691406 41.03125 C 17.515625 41.03125 17.367188 40.96875 17.242188 40.84375 C 17.117188 40.71875 17.054688 40.566406 17.054688 40.390625 L 17.054688 35.425781 L 21.433594 35.425781 L 21.433594 40.410156 C 21.429688 40.585938 21.363281 40.738281 21.234375 40.859375 C 21.105469 40.980469 20.953125 41.039062 20.777344 41.03125 Z M 20.777344 41.03125 "/>
<g clip-path="url(#clip1)" clip-rule="nonzero">
<path style=" stroke:none;fill-rule:nonzero;fill:rgb(2.749634%,58.428955%,100%);fill-opacity:1;" d="M 19.5625 30.519531 L 23.417969 36.183594 C 23.511719 36.332031 23.519531 36.484375 23.433594 36.644531 C 23.351562 36.800781 23.21875 36.878906 23.042969 36.878906 L 15.351562 36.878906 C 15.175781 36.878906 15.046875 36.800781 14.960938 36.644531 C 14.878906 36.484375 14.882812 36.332031 14.980469 36.183594 L 18.832031 30.519531 C 18.871094 30.457031 18.925781 30.40625 18.988281 30.371094 C 19.054688 30.332031 19.125 30.316406 19.199219 30.316406 C 19.273438 30.316406 19.339844 30.332031 19.40625 30.371094 C 19.472656 30.40625 19.523438 30.457031 19.5625 30.519531 Z M 19.5625 30.519531 "/>
</g>
<g clip-path="url(#clip2)" clip-rule="nonzero">
<path style=" stroke:none;fill-rule:nonzero;fill:rgb(79.998779%,84.709167%,89.7995%);fill-opacity:1;" d="M 13.78125 43.730469 L 24.59375 43.730469 C 24.917969 43.730469 25.226562 43.792969 25.527344 43.917969 C 25.824219 44.042969 26.085938 44.21875 26.316406 44.449219 C 26.542969 44.679688 26.71875 44.945312 26.84375 45.246094 C 26.964844 45.546875 27.027344 45.859375 27.027344 46.1875 L 27.027344 115.457031 L 11.351562 115.457031 L 11.351562 46.203125 C 11.347656 45.878906 11.40625 45.5625 11.53125 45.261719 C 11.652344 44.957031 11.828125 44.691406 12.054688 44.457031 C 12.285156 44.226562 12.546875 44.046875 12.847656 43.921875 C 13.144531 43.792969 13.457031 43.730469 13.78125 43.730469 Z M 13.78125 43.730469 "/>
</g>
<g clip-path="url(#clip3)" clip-rule="nonzero">
<path style=" stroke:none;fill-rule:nonzero;fill:rgb(87.449646%,90.979004%,95.689392%);fill-opacity:1;" d="M 34.117188 77.707031 L 45.023438 77.707031 C 45.347656 77.707031 45.65625 77.769531 45.957031 77.894531 C 46.253906 78.019531 46.515625 78.195312 46.746094 78.425781 C 46.972656 78.65625 47.148438 78.921875 47.273438 79.222656 C 47.394531 79.523438 47.457031 79.835938 47.457031 80.160156 L 47.457031 115.457031 L 31.6875 115.457031 L 31.6875 80.179688 C 31.683594 79.851562 31.742188 79.539062 31.867188 79.234375 C 31.988281 78.933594 32.164062 78.664062 32.390625 78.433594 C 32.621094 78.199219 32.882812 78.019531 33.183594 77.894531 C 33.480469 77.769531 33.792969 77.707031 34.117188 77.707031 Z M 34.117188 77.707031 "/>
</g>
<path style=" stroke:none;fill-rule:nonzero;fill:rgb(8.239746%,42.349243%,86.669922%);fill-opacity:1;" d="M 85.902344 73.460938 L 94.117188 73.460938 C 94.253906 73.460938 94.375 73.511719 94.472656 73.609375 C 94.570312 73.710938 94.621094 73.828125 94.621094 73.96875 L 94.621094 94.167969 L 85.398438 94.167969 L 85.398438 73.933594 C 85.40625 73.796875 85.460938 73.6875 85.558594 73.597656 C 85.65625 73.503906 85.769531 73.460938 85.902344 73.460938 Z M 85.902344 73.460938 "/>
<g clip-path="url(#clip4)" clip-rule="nonzero">
<path style=" stroke:none;fill-rule:nonzero;fill:rgb(2.749634%,58.428955%,100%);fill-opacity:1;" d="M 74.828125 66.382812 L 50.058594 91.449219 C 49.824219 91.707031 49.777344 91.996094 49.914062 92.316406 C 50.050781 92.636719 50.292969 92.800781 50.636719 92.808594 L 100.175781 92.808594 C 100.34375 92.8125 100.496094 92.769531 100.636719 92.679688 C 100.777344 92.585938 100.878906 92.464844 100.941406 92.308594 C 101.007812 92.15625 101.023438 91.996094 100.988281 91.832031 C 100.953125 91.667969 100.878906 91.527344 100.757812 91.410156 L 75.988281 66.382812 C 75.828125 66.222656 75.632812 66.140625 75.40625 66.140625 C 75.179688 66.140625 74.988281 66.222656 74.828125 66.382812 Z M 74.828125 66.382812 "/>
</g>
<g clip-path="url(#clip5)" clip-rule="nonzero">
<path style=" stroke:none;fill-rule:nonzero;fill:rgb(2.749634%,58.428955%,100%);fill-opacity:1;" d="M 56.195312 90.65625 L 94.621094 90.65625 L 94.621094 115.457031 L 56.195312 115.457031 Z M 56.195312 90.65625 "/>
</g>
<g clip-path="url(#clip6)" clip-rule="nonzero">
<path style=" stroke:none;fill-rule:nonzero;fill:rgb(8.239746%,42.349243%,86.669922%);fill-opacity:1;" d="M 81.414062 115.457031 L 69.347656 115.457031 L 69.347656 106.019531 C 69.347656 105.621094 69.382812 105.226562 69.460938 104.835938 C 69.539062 104.449219 69.652344 104.070312 69.804688 103.699219 C 69.953125 103.332031 70.140625 102.984375 70.359375 102.652344 C 70.578125 102.324219 70.824219 102.015625 71.105469 101.734375 C 71.382812 101.453125 71.6875 101.203125 72.015625 100.980469 C 72.34375 100.761719 72.6875 100.574219 73.054688 100.421875 C 73.417969 100.269531 73.792969 100.15625 74.179688 100.078125 C 74.566406 100 74.957031 99.960938 75.351562 99.960938 C 75.746094 99.957031 76.140625 99.992188 76.53125 100.066406 C 76.921875 100.140625 77.300781 100.253906 77.667969 100.40625 C 78.035156 100.554688 78.382812 100.742188 78.714844 100.960938 C 79.046875 101.183594 79.351562 101.433594 79.632812 101.714844 C 79.914062 101.996094 80.167969 102.304688 80.390625 102.636719 C 80.609375 102.96875 80.796875 103.320312 80.949219 103.6875 C 81.101562 104.058594 81.21875 104.4375 81.296875 104.832031 C 81.375 105.222656 81.414062 105.621094 81.414062 106.019531 Z M 81.414062 115.457031 "/>
</g>
</g>
</svg>
