<?xml version="1.0" encoding="UTF-8"?>
<svg xmlns="http://www.w3.org/2000/svg" xmlns:xlink="http://www.w3.org/1999/xlink" width="224.87999pt" height="299.999988pt" viewBox="0 0 224.87999 299.999988" version="1.2">
<defs>
<clipPath id="clip1">
  <path d="M 119 144 L 202.390625 144 L 202.390625 169 L 119 169 Z M 119 144 "/>
</clipPath>
<clipPath id="clip2">
  <path d="M 22.488281 112 L 35 112 L 35 138 L 22.488281 138 Z M 22.488281 112 "/>
</clipPath>
<clipPath id="clip3">
  <path d="M 34 231 L 53 231 L 53 233.207031 L 34 233.207031 Z M 34 231 "/>
</clipPath>
<clipPath id="clip4">
  <path d="M 33 231 L 52 231 L 52 233.207031 L 33 233.207031 Z M 33 231 "/>
</clipPath>
</defs>
<g id="surface1">
<path style=" stroke:none;fill-rule:nonzero;fill:rgb(94.509888%,26.269531%,34.509277%);fill-opacity:1;" d="M 168.175781 104.074219 C 169.953125 100.292969 170.609375 96.574219 170.355469 92.21875 C 169.589844 79.234375 159.109375 68.652344 146.128906 67.792969 C 130.941406 66.785156 118.304688 78.808594 118.304688 93.777344 C 118.304688 101.355469 122.5625 107.421875 126.726562 113.375 C 131.417969 120.089844 136.09375 126.816406 140.832031 133.507812 C 142.550781 135.933594 146.152344 135.933594 147.875 133.507812 C 151.773438 127.933594 155.566406 122.195312 159.738281 116.84375 C 162.53125 113.253906 165.25 109.570312 167.425781 105.558594 C 167.695312 105.0625 167.945312 104.566406 168.175781 104.074219 "/>
<path style=" stroke:none;fill-rule:nonzero;fill:rgb(100%,100%,100%);fill-opacity:1;" d="M 161.488281 93.777344 C 161.488281 103.242188 153.8125 110.914062 144.355469 110.914062 C 134.890625 110.914062 127.214844 103.242188 127.214844 93.777344 C 127.214844 84.316406 134.890625 76.644531 144.355469 76.644531 C 153.8125 76.644531 161.488281 84.316406 161.488281 93.777344 "/>
<path style=" stroke:none;fill-rule:nonzero;fill:rgb(94.509888%,26.269531%,34.509277%);fill-opacity:1;" d="M 154.492188 92.203125 L 149.425781 87.429688 L 144.355469 82.652344 L 134.222656 92.203125 L 136.417969 92.203125 L 136.417969 101.949219 L 142.246094 101.949219 L 142.246094 94.65625 L 146.46875 94.65625 L 146.46875 101.949219 L 152.292969 101.949219 L 152.292969 92.203125 L 154.492188 92.203125 "/>
<path style=" stroke:none;fill-rule:nonzero;fill:rgb(87.838745%,69.40918%,66.268921%);fill-opacity:1;" d="M 191.101562 217.398438 L 105.382812 217.398438 L 103.46875 159.792969 L 195.757812 159.792969 L 191.101562 217.398438 "/>
<path style=" stroke:none;fill-rule:nonzero;fill:rgb(80.778503%,64.709473%,61.569214%);fill-opacity:1;" d="M 129.507812 211.855469 C 132.042969 203.59375 137.0625 196.351562 143.648438 190.789062 C 150.964844 184.605469 159.941406 180.253906 168.96875 177.1875 C 177.429688 174.3125 185.8125 172.53125 194.757812 172.152344 L 195.757812 159.792969 L 103.46875 159.792969 L 105.382812 217.398438 L 128.144531 217.398438 C 128.503906 215.519531 128.957031 213.664062 129.507812 211.855469 "/>
<path style=" stroke:none;fill-rule:nonzero;fill:rgb(36.079407%,25.489807%,25.878906%);fill-opacity:1;" d="M 178.046875 199.707031 L 135.921875 199.707031 L 135.003906 177.484375 L 179.117188 177.484375 L 178.046875 199.707031 "/>
<path style=" stroke:none;fill-rule:nonzero;fill:rgb(59.609985%,86.268616%,78.42865%);fill-opacity:1;" d="M 175.445312 198.03125 L 138.542969 198.03125 L 137.742188 179.160156 L 176.382812 179.160156 L 175.445312 198.03125 "/>
<path style=" stroke:none;fill-rule:nonzero;fill:rgb(72.158813%,90.589905%,85.488892%);fill-opacity:1;" d="M 175.753906 191.804688 L 176.085938 185.128906 L 163.183594 198.03125 L 169.515625 198.03125 C 171.59375 195.953125 173.671875 193.878906 175.753906 191.804688 "/>
<path style=" stroke:none;fill-rule:nonzero;fill:rgb(72.158813%,90.589905%,85.488892%);fill-opacity:1;" d="M 156.449219 179.160156 L 149.125 179.160156 L 138.207031 190.082031 L 138.503906 197.105469 C 144.480469 191.117188 150.460938 185.136719 156.449219 179.160156 "/>
<path style=" stroke:none;fill-rule:nonzero;fill:rgb(72.158813%,90.589905%,85.488892%);fill-opacity:1;" d="M 171.816406 179.160156 L 164.808594 179.160156 L 145.941406 198.03125 L 152.945312 198.03125 C 159.234375 191.738281 165.523438 185.449219 171.816406 179.160156 "/>
<g clip-path="url(#clip1)" clip-rule="nonzero">
<path style=" stroke:none;fill-rule:nonzero;fill:rgb(36.079407%,25.489807%,25.878906%);fill-opacity:1;" d="M 119.71875 144.382812 L 185.507812 144.382812 L 202.378906 168.277344 L 121.898438 168.277344 L 119.71875 144.382812 "/>
</g>
<path style=" stroke:none;fill-rule:nonzero;fill:rgb(29.019165%,21.958923%,21.958923%);fill-opacity:1;" d="M 155.339844 154.148438 C 161.539062 149.996094 168.765625 146.714844 176.011719 144.945312 C 176.90625 144.726562 177.804688 144.539062 178.710938 144.382812 L 119.71875 144.382812 L 121.898438 168.277344 L 143.382812 168.277344 C 145.339844 162.238281 150.167969 157.609375 155.339844 154.148438 "/>
<path style=" stroke:none;fill-rule:nonzero;fill:rgb(99.21875%,91.369629%,87.449646%);fill-opacity:1;" d="M 97.453125 120.679688 L 74.382812 149.097656 L 78.375 220.628906 L 119.410156 220.628906 L 120.527344 149.097656 L 97.453125 120.679688 "/>
<path style=" stroke:none;fill-rule:nonzero;fill:rgb(98.429871%,76.469421%,72.938538%);fill-opacity:1;" d="M 127.671875 144.75 L 125.570312 217.417969 L 119.410156 220.628906 L 120.527344 149.097656 L 127.671875 144.75 "/>
<path style=" stroke:none;fill-rule:nonzero;fill:rgb(41.569519%,30.589294%,30.589294%);fill-opacity:1;" d="M 123.542969 149.097656 L 129.785156 144.324219 L 106.0625 113.972656 L 97.453125 113.972656 L 123.542969 149.097656 "/>
<path style=" stroke:none;fill-rule:nonzero;fill:rgb(64.709473%,45.098877%,45.098877%);fill-opacity:1;" d="M 74.382812 149.097656 L 70.957031 149.097656 L 97.453125 113.972656 L 123.542969 149.097656 L 120.527344 149.097656 L 97.453125 120.679688 L 74.382812 149.097656 "/>
<path style=" stroke:none;fill-rule:nonzero;fill:rgb(41.569519%,30.589294%,30.589294%);fill-opacity:1;" d="M 106.0625 151.394531 C 106.0625 156.570312 101.867188 160.761719 96.691406 160.761719 C 91.519531 160.761719 87.328125 156.570312 87.328125 151.394531 C 87.328125 146.222656 91.519531 142.027344 96.691406 142.027344 C 101.867188 142.027344 106.0625 146.222656 106.0625 151.394531 "/>
<path style=" stroke:none;fill-rule:nonzero;fill:rgb(59.609985%,86.268616%,78.42865%);fill-opacity:1;" d="M 103.765625 151.394531 C 103.765625 155.300781 100.601562 158.464844 96.691406 158.464844 C 92.789062 158.464844 89.625 155.300781 89.625 151.394531 C 89.625 147.488281 92.789062 144.324219 96.691406 144.324219 C 100.601562 144.324219 103.765625 147.488281 103.765625 151.394531 "/>
<path style=" stroke:none;fill-rule:nonzero;fill:rgb(72.158813%,90.589905%,85.488892%);fill-opacity:1;" d="M 92.421875 157.027344 C 95.71875 153.722656 99.019531 150.414062 102.316406 147.109375 C 101.199219 145.644531 99.519531 144.628906 97.601562 144.382812 C 94.960938 147.023438 92.320312 149.660156 89.683594 152.300781 C 89.929688 154.226562 90.949219 155.910156 92.421875 157.027344 "/>
<path style=" stroke:none;fill-rule:nonzero;fill:rgb(41.569519%,30.589294%,30.589294%);fill-opacity:1;" d="M 104.871094 149.992188 L 97.902344 149.992188 L 97.902344 143.019531 L 95.097656 143.019531 L 95.097656 149.992188 L 88.125 149.992188 L 88.125 152.796875 L 95.097656 152.796875 L 95.097656 159.769531 L 97.902344 159.769531 L 97.902344 152.796875 L 104.871094 152.796875 L 104.871094 149.992188 "/>
<path style=" stroke:none;fill-rule:nonzero;fill:rgb(36.079407%,25.489807%,25.878906%);fill-opacity:1;" d="M 104.867188 220.628906 L 89.992188 220.628906 L 87.519531 180.714844 L 107.753906 180.714844 L 104.867188 220.628906 "/>
<path style=" stroke:none;fill-rule:nonzero;fill:rgb(27.839661%,23.139954%,23.139954%);fill-opacity:1;" d="M 91.917969 207.5625 C 91.980469 203.601562 92.023438 199.542969 92.792969 195.640625 C 93.503906 192.019531 95.097656 188.570312 98.074219 186.277344 C 100.820312 184.164062 104.253906 183.019531 107.636719 182.355469 L 107.753906 180.714844 L 87.519531 180.714844 L 89.992188 220.628906 L 92.480469 220.628906 C 91.980469 216.296875 91.851562 211.925781 91.917969 207.5625 "/>
<path style=" stroke:none;fill-rule:nonzero;fill:rgb(96.859741%,56.079102%,36.079407%);fill-opacity:1;" d="M 105.066406 200.863281 C 105.066406 201.746094 104.351562 202.460938 103.46875 202.460938 C 102.585938 202.460938 101.871094 201.746094 101.871094 200.863281 C 101.871094 199.980469 102.585938 199.265625 103.46875 199.265625 C 104.351562 199.265625 105.066406 199.980469 105.066406 200.863281 "/>
<path style=" stroke:none;fill-rule:nonzero;fill:rgb(98.429871%,76.078796%,46.669006%);fill-opacity:1;" d="M 104.609375 200.507812 C 104.609375 200.824219 104.355469 201.078125 104.039062 201.078125 C 103.722656 201.078125 103.46875 200.824219 103.46875 200.507812 C 103.46875 200.195312 103.722656 199.9375 104.039062 199.9375 C 104.355469 199.9375 104.609375 200.195312 104.609375 200.507812 "/>
<path style=" stroke:none;fill-rule:nonzero;fill:rgb(36.079407%,25.489807%,25.878906%);fill-opacity:1;" d="M 158.410156 199.472656 L 155.710938 199.472656 L 155.710938 177.71875 L 158.410156 177.71875 L 158.410156 199.472656 "/>
<path style=" stroke:none;fill-rule:nonzero;fill:rgb(36.079407%,25.489807%,25.878906%);fill-opacity:1;" d="M 136.527344 189.945312 L 136.527344 187.246094 L 177.589844 187.246094 L 177.589844 189.945312 L 136.527344 189.945312 "/>
<path style=" stroke:none;fill-rule:nonzero;fill:rgb(40.388489%,39.219666%,38.819885%);fill-opacity:1;" d="M 120.128906 223.1875 L 74.785156 223.1875 C 74.078125 223.1875 73.503906 222.609375 73.503906 221.90625 C 73.503906 221.203125 74.078125 220.628906 74.785156 220.628906 L 120.128906 220.628906 C 120.832031 220.628906 121.40625 221.203125 121.40625 221.90625 C 121.40625 222.609375 120.832031 223.1875 120.128906 223.1875 "/>
<path style=" stroke:none;fill-rule:nonzero;fill:rgb(40.388489%,39.219666%,38.819885%);fill-opacity:1;" d="M 193.019531 219.351562 L 126.199219 219.351562 C 125.496094 219.351562 124.921875 218.777344 124.921875 218.074219 C 124.921875 217.371094 125.496094 216.796875 126.199219 216.796875 L 193.019531 216.796875 C 193.722656 216.796875 194.296875 217.371094 194.296875 218.074219 C 194.296875 218.777344 193.722656 219.351562 193.019531 219.351562 "/>
<path style=" stroke:none;fill-rule:nonzero;fill:rgb(62.348938%,85.099792%,39.219666%);fill-opacity:1;" d="M 129.378906 206.605469 C 128.457031 206.96875 127.730469 207.78125 127.855469 208.828125 C 128.652344 207.167969 127.253906 204.964844 125.527344 204.636719 C 123.773438 204.304688 121.898438 205.777344 121.804688 207.558594 C 122.042969 207.164062 121.449219 206.785156 120.992188 206.757812 C 119.28125 206.648438 117.472656 207.753906 117.082031 209.421875 C 116.695312 211.089844 118.113281 213.023438 119.820312 212.890625 C 118.691406 212.523438 117.699219 213.773438 117.355469 214.910156 C 116.996094 216.117188 116.921875 217.464844 117.457031 218.609375 C 118.023438 219.820312 119.214844 220.476562 120.507812 220.445312 C 119.335938 221.40625 121.195312 222.875 122.109375 223.085938 C 123.238281 223.351562 124.414062 223.03125 125.527344 222.707031 C 126.8125 222.339844 128.097656 221.972656 129.382812 221.601562 C 130.726562 221.21875 132.125 220.800781 133.132812 219.839844 C 134.414062 218.621094 134.839844 216.664062 134.417969 214.949219 C 134.214844 214.121094 133.820312 213.9375 134.054688 213.214844 C 134.230469 212.679688 134.839844 212.351562 134.957031 211.679688 C 135.117188 210.777344 134.84375 209.847656 134.414062 209.042969 C 133.515625 207.371094 131.640625 206.035156 129.800781 206.472656 C 129.65625 206.503906 129.519531 206.550781 129.378906 206.605469 "/>
<path style=" stroke:none;fill-rule:nonzero;fill:rgb(53.729248%,72.938538%,33.729553%);fill-opacity:1;" d="M 124.671875 213.546875 C 124.394531 213.625 124.136719 213.746094 123.925781 213.921875 C 123.402344 214.347656 122.714844 215.871094 123.40625 216.445312 C 122.4375 215.640625 120.800781 215.859375 120.078125 216.886719 C 119.351562 217.917969 119.703125 219.53125 120.785156 220.167969 C 119.886719 219.4375 118.394531 220.386719 118.308594 221.546875 C 118.230469 222.707031 119.105469 223.734375 120.09375 224.34375 C 120.820312 224.792969 121.675781 225.09375 122.527344 224.984375 C 123.375 224.875 124.191406 224.277344 124.367188 223.441406 C 124.796875 224.625 126.417969 224.722656 127.664062 224.53125 C 128.578125 224.394531 134.585938 222.539062 132.863281 220.871094 C 134.957031 223.203125 138.496094 219 136.433594 216.941406 C 135.789062 216.296875 134.714844 216.117188 133.914062 216.550781 C 134.195312 215.511719 133.664062 214.332031 132.738281 213.777344 C 131.8125 213.222656 130.585938 213.277344 129.660156 213.832031 C 128.820312 214.332031 128.722656 215.105469 128.742188 215.992188 C 128.5 215.089844 127.964844 214.285156 127.125 213.832031 C 126.453125 213.46875 125.472656 213.320312 124.671875 213.546875 "/>
<path style=" stroke:none;fill-rule:nonzero;fill:rgb(62.348938%,85.099792%,39.219666%);fill-opacity:1;" d="M 194.167969 218.9375 C 193.339844 219.773438 192.242188 220.347656 191.078125 220.511719 C 190.113281 220.648438 188.917969 220.359375 188.632812 219.433594 C 189.0625 220.855469 188.027344 222.394531 186.6875 223.039062 C 184.925781 223.882812 183.425781 223.609375 181.726562 223.074219 C 180.171875 222.582031 180.519531 222.308594 179.070312 222.695312 C 178.195312 222.929688 177.355469 223.644531 176.441406 223.921875 C 172.851562 225.015625 168.613281 224.167969 165.929688 221.480469 C 163.652344 223.816406 159.4375 223.84375 157.132812 221.535156 C 156.230469 220.632812 155.964844 218.644531 157.230469 218.464844 C 156.050781 217.023438 156.433594 214.675781 157.835938 213.453125 C 159.238281 212.230469 161.378906 212.078125 163.09375 212.796875 C 161.601562 212.484375 160.726562 210.675781 161.175781 209.21875 C 161.625 207.765625 163.121094 206.789062 164.640625 206.675781 C 166.160156 206.566406 167.65625 207.203125 168.859375 208.140625 C 168.652344 205.261719 170.957031 203.28125 173.296875 203.097656 C 174.976562 202.96875 176.675781 203.769531 177.472656 205.835938 C 178.410156 204.339844 180.394531 203.589844 182.085938 204.09375 C 183.277344 204.445312 183.484375 206.1875 184.371094 206.460938 C 185.441406 206.796875 186.574219 205.351562 187.882812 205.476562 C 190.34375 205.714844 192.273438 208.378906 191.730469 210.792969 C 192.773438 210.332031 193.988281 211.058594 194.664062 211.976562 C 195.769531 213.472656 196.015625 215.554688 195.292969 217.265625 C 195.03125 217.890625 194.644531 218.457031 194.167969 218.9375 "/>
<path style=" stroke:none;fill-rule:nonzero;fill:rgb(65.489197%,69.018555%,35.289001%);fill-opacity:1;" d="M 156.9375 218.554688 C 156.019531 218.988281 156.308594 220.710938 157.132812 221.535156 C 157.53125 221.933594 157.984375 222.257812 158.476562 222.519531 C 157.378906 221.53125 156.738281 220.167969 156.9375 218.554688 "/>
<path style=" stroke:none;fill-rule:nonzero;fill:rgb(53.729248%,72.938538%,33.729553%);fill-opacity:1;" d="M 180.632812 219.566406 C 181.277344 219.636719 181.878906 219.65625 182.277344 219.1875 C 182.441406 219 182.527344 218.757812 182.597656 218.519531 C 183.539062 215.308594 181.320312 210.960938 177.816406 210.402344 C 176.730469 210.230469 175.667969 210.769531 174.890625 211.480469 C 174.398438 210.511719 173.984375 209.433594 173.128906 208.667969 C 172.046875 207.695312 170.425781 207.273438 169.078125 207.824219 C 167.730469 208.371094 166.839844 209.980469 167.292969 211.363281 C 167.140625 209.472656 164.835938 208.542969 162.941406 208.65625 C 161.875 208.71875 160.761719 209.011719 160.011719 209.777344 C 159.261719 210.539062 159.023438 211.871094 159.714844 212.6875 C 159.121094 210.894531 156.652344 209.964844 155.117188 211.066406 C 153.578125 212.171875 153.820312 215.003906 155.585938 215.6875 C 153.992188 215.277344 152.296875 216.765625 152.285156 218.40625 C 152.277344 220.042969 153.738281 221.488281 155.363281 221.691406 C 156.238281 221.796875 157.253906 221.519531 157.675781 220.742188 C 156.625 221.292969 156.589844 222.917969 157.359375 223.820312 C 158.128906 224.71875 159.382812 225.027344 160.5625 225.121094 C 162.496094 225.273438 163.804688 224.679688 164.984375 223.222656 C 165.949219 224.554688 167.375 225.464844 169.050781 225.589844 C 170.0625 225.667969 171.125 225.511719 171.980469 224.960938 C 172.757812 224.457031 173.246094 223.582031 173.480469 222.714844 C 174.320312 223.195312 175.21875 223.554688 176.21875 223.65625 C 177.425781 223.777344 178.777344 223.699219 179.636719 222.84375 C 180.101562 222.382812 180.367188 221.726562 180.347656 221.074219 C 180.324219 220.300781 179.730469 219.457031 178.960938 219.542969 C 179.476562 219.402344 180.070312 219.503906 180.632812 219.566406 "/>
<path style=" stroke:none;fill-rule:nonzero;fill:rgb(94.898987%,65.489197%,52.938843%);fill-opacity:1;" d="M 60.414062 115.523438 C 62.359375 119.679688 64.144531 127.554688 64.46875 138.375 C 64.449219 142.355469 63.933594 146.601562 61.949219 147.386719 C 60.289062 148.042969 60.136719 144.878906 60.019531 143.964844 C 59.480469 139.644531 59.292969 138.40625 58.785156 135.484375 C 57.179688 126.210938 56.042969 121.945312 55.332031 120.003906 L 60.414062 115.523438 "/>
<path style=" stroke:none;fill-rule:nonzero;fill:rgb(94.898987%,65.489197%,52.938843%);fill-opacity:1;" d="M 81.148438 146.328125 C 81.148438 146.328125 82.089844 143.539062 87.316406 144.632812 C 87.316406 144.632812 87.464844 145.339844 85.433594 145.769531 C 83.984375 146.074219 82.742188 146.296875 81.921875 146.351562 C 81.589844 146.371094 81.328125 146.367188 81.148438 146.328125 "/>
<path style=" stroke:none;fill-rule:nonzero;fill:rgb(94.898987%,65.489197%,52.938843%);fill-opacity:1;" d="M 81.511719 148.878906 C 81.511719 148.878906 84.332031 149.726562 86.777344 149.402344 C 89.222656 149.078125 89.839844 147.941406 90.042969 147.25 C 90.183594 146.777344 90.566406 145.300781 89.660156 145.507812 C 88.753906 145.71875 84.550781 145.347656 83.496094 145.382812 C 82.441406 145.414062 80.984375 146.304688 80.941406 146.53125 C 80.902344 146.761719 81.511719 148.878906 81.511719 148.878906 "/>
<path style=" stroke:none;fill-rule:nonzero;fill:rgb(94.898987%,65.489197%,52.938843%);fill-opacity:1;" d="M 60.046875 147.476562 C 59.367188 146.445312 58.070312 144.925781 59.15625 143.488281 C 60.070312 142.28125 60.894531 143.042969 64.824219 143.710938 L 64.820312 143.710938 C 72.183594 145.511719 80.214844 146.246094 85.539062 146.101562 C 91.507812 145.945312 85.671875 148.730469 85.671875 148.730469 C 79.117188 149.929688 68.980469 149.503906 60.046875 147.476562 "/>
<path style=" stroke:none;fill-rule:nonzero;fill:rgb(96.078491%,46.669006%,13.328552%);fill-opacity:1;" d="M 60.207031 113.164062 C 61.933594 114.007812 65.367188 126.5 65.714844 134.480469 C 63.722656 135.109375 60.617188 135.609375 58.050781 135.265625 C 57.992188 135.257812 55.847656 130.46875 55.804688 130.503906 C 53.273438 118.652344 54.992188 117.820312 54.996094 117.914062 C 54.996094 117.914062 56.117188 111.175781 60.207031 113.164062 "/>
<path style=" stroke:none;fill-rule:nonzero;fill:rgb(94.898987%,65.489197%,52.938843%);fill-opacity:1;" d="M 48.582031 102.753906 C 47.320312 101.460938 42.824219 101.117188 42.519531 103.355469 C 42.25 105.363281 41.941406 112.085938 42.207031 113.089844 C 42.910156 115.753906 47.039062 120.023438 47.488281 118.648438 C 47.941406 117.269531 49.449219 103.648438 48.582031 102.753906 "/>
<path style=" stroke:none;fill-rule:nonzero;fill:rgb(87.059021%,60.778809%,49.409485%);fill-opacity:1;" d="M 42.128906 109.695312 C 42.1875 107.367188 42.359375 104.542969 42.519531 103.355469 C 42.824219 101.117188 47.320312 101.460938 48.582031 102.753906 C 48.867188 103.046875 48.894531 104.71875 48.789062 106.871094 C 46.1875 106.945312 43.808594 107.894531 42.128906 109.695312 "/>
<path style=" stroke:none;fill-rule:nonzero;fill:rgb(96.859741%,66.268921%,56.858826%);fill-opacity:1;" d="M 34.144531 92.625 C 34.144531 96.714844 35.855469 100.871094 39.125 103.417969 C 42.898438 106.355469 51.214844 106.964844 53.335938 101.601562 C 53.875 100.234375 53.914062 98.726562 53.902344 97.257812 C 53.878906 94.933594 53.433594 92.488281 53.75 90.183594 C 53.996094 88.367188 54.167969 87.152344 53.421875 85.378906 C 51.863281 81.660156 47.980469 78.492188 43.726562 79.738281 C 41.914062 80.265625 40.328125 80.824219 38.847656 82.050781 C 35.753906 84.617188 34.144531 88.652344 34.144531 92.625 "/>
<path style=" stroke:none;fill-rule:nonzero;fill:rgb(21.958923%,36.079407%,48.629761%);fill-opacity:1;" d="M 44.632812 161.160156 C 46.203125 174.914062 43.664062 196.015625 43.359375 199.894531 C 42.722656 208.007812 34.824219 199.894531 34.824219 199.894531 C 34.824219 199.894531 32.320312 168.40625 33.28125 165.765625 C 34.242188 163.125 44.277344 158.089844 44.632812 161.160156 "/>
<path style=" stroke:none;fill-rule:nonzero;fill:rgb(21.958923%,36.079407%,48.629761%);fill-opacity:1;" d="M 47.585938 159.453125 C 46.007812 173.210938 50.132812 196.855469 51.164062 200.609375 C 52.195312 204.359375 58.074219 199.894531 58.074219 199.894531 C 58.074219 199.894531 60.113281 169.488281 59.394531 165.742188 C 58.867188 162.980469 47.933594 156.382812 47.585938 159.453125 "/>
<path style=" stroke:none;fill-rule:nonzero;fill:rgb(21.958923%,36.079407%,48.629761%);fill-opacity:1;" d="M 40.621094 171.203125 L 51.355469 171.328125 C 55.832031 171.328125 59.386719 177.289062 59.386719 172.8125 C 59.386719 172.8125 60.773438 161.210938 56.0625 152.878906 L 35.976562 152.878906 C 30.570312 160.101562 33.6875 172.472656 33.6875 176.949219 C 33.6875 176.949219 36.144531 171.203125 40.621094 171.203125 "/>
<path style=" stroke:none;fill-rule:nonzero;fill:rgb(15.289307%,24.308777%,33.729553%);fill-opacity:1;" d="M 46.976562 170.453125 C 48.683594 170.355469 49.300781 170.230469 50.179688 169.972656 C 50.476562 169.890625 50.742188 170.355469 50.457031 170.464844 C 48.535156 171.214844 47.933594 171.109375 47.371094 171.109375 L 44.929688 171.097656 C 44.929688 170.75 45.167969 170.554688 46.976562 170.453125 "/>
<path style=" stroke:none;fill-rule:nonzero;fill:rgb(94.898987%,65.489197%,52.938843%);fill-opacity:1;" d="M 46.164062 223.132812 C 46.144531 223.191406 45.472656 226.714844 45.472656 226.714844 C 45.472656 226.714844 48.402344 230.074219 48.773438 228.679688 C 49.230469 226.96875 50.070312 222.886719 50.070312 222.886719 L 46.164062 223.132812 "/>
<path style=" stroke:none;fill-rule:nonzero;fill:rgb(12.939453%,6.669617%,5.879211%);fill-opacity:1;" d="M 50.234375 223.1875 C 50.214844 223.273438 50.1875 223.386719 50.152344 223.511719 C 50.1875 223.386719 50.214844 223.273438 50.234375 223.1875 "/>
<path style=" stroke:none;fill-rule:nonzero;fill:rgb(12.939453%,6.669617%,5.879211%);fill-opacity:1;" d="M 50.03125 223.957031 C 50.011719 224.035156 49.984375 224.117188 49.960938 224.199219 C 49.984375 224.113281 50.011719 224.035156 50.03125 223.957031 "/>
<path style=" stroke:none;fill-rule:nonzero;fill:rgb(12.939453%,6.669617%,5.879211%);fill-opacity:1;" d="M 50.285156 222.984375 C 50.273438 223.027344 50.257812 223.09375 50.238281 223.175781 C 50.257812 223.09375 50.273438 223.027344 50.285156 222.984375 "/>
<path style=" stroke:none;fill-rule:nonzero;fill:rgb(12.939453%,6.669617%,5.879211%);fill-opacity:1;" d="M 50.292969 222.9375 L 50.285156 222.972656 L 50.292969 222.9375 "/>
<path style=" stroke:none;fill-rule:nonzero;fill:rgb(21.958923%,36.079407%,48.629761%);fill-opacity:1;" d="M 50.828125 224.175781 L 45.828125 222.839844 C 46.496094 217.789062 49.777344 199.054688 50.695312 196.441406 C 51.742188 193.472656 58.125 197.777344 58.125 197.777344 C 58.125 197.777344 58.007812 200.796875 53.90625 214.757812 C 53.1875 217.203125 50.859375 224.117188 50.828125 224.175781 "/>
<path style=" stroke:none;fill-rule:nonzero;fill:rgb(94.898987%,65.489197%,52.938843%);fill-opacity:1;" d="M 36.707031 222.84375 C 36.703125 222.90625 36.960938 226.480469 36.960938 226.480469 C 36.960938 226.480469 40.195312 228.433594 40.429688 227.003906 C 40.648438 225.675781 40.417969 221.597656 40.417969 221.597656 L 36.707031 222.84375 "/>
<path style=" stroke:none;fill-rule:nonzero;fill:rgb(12.939453%,6.669617%,5.879211%);fill-opacity:1;" d="M 40.648438 221.636719 C 40.652344 221.679688 40.652344 221.746094 40.65625 221.832031 C 40.652344 221.746094 40.652344 221.679688 40.648438 221.636719 "/>
<path style=" stroke:none;fill-rule:nonzero;fill:rgb(21.958923%,36.079407%,48.629761%);fill-opacity:1;" d="M 36.546875 224.921875 C 36.203125 221.164062 34.550781 199.246094 34.773438 196.402344 C 35.015625 193.265625 43.453125 198.484375 43.453125 198.484375 C 43.453125 198.484375 43.226562 201.953125 41.308594 224.921875 L 36.546875 224.921875 "/>
<path style=" stroke:none;fill-rule:nonzero;fill:rgb(94.898987%,65.489197%,52.938843%);fill-opacity:1;" d="M 54.707031 147.589844 L 44.789062 148.304688 L 34.617188 147.589844 C 35.511719 145.433594 33.015625 123.683594 32.089844 115.917969 C 31.90625 114.382812 32.882812 112.960938 34.375 112.5625 C 36.859375 111.902344 40.101562 110.898438 42.386719 109.972656 C 44.574219 109.085938 46.292969 109.117188 48.320312 110.105469 C 50.644531 111.238281 54.832031 110.953125 57.671875 113.183594 C 59.050781 114.265625 53.125 143.582031 54.707031 147.589844 "/>
<path style=" stroke:none;fill-rule:nonzero;fill:rgb(96.859741%,56.079102%,12.548828%);fill-opacity:1;" d="M 31.472656 112.679688 C 33.402344 112.164062 38.691406 111.328125 40.734375 110.59375 C 42.035156 112.039062 45.140625 117.320312 46.1875 117.183594 C 47.230469 117.046875 48.984375 111.714844 49.566406 110.550781 C 51.949219 111.207031 58.035156 111.769531 60.421875 113.644531 C 61.804688 114.730469 59.578125 158.507812 59.980469 164.835938 C 59.980469 164.835938 56.753906 166.777344 45.640625 167.082031 C 34.527344 167.386719 30.328125 164.835938 30.328125 164.835938 C 31.222656 162.683594 27.671875 123.367188 29.183594 116.035156 C 29.496094 114.519531 29.980469 113.074219 31.472656 112.679688 "/>
<path style=" stroke:none;fill-rule:nonzero;fill:rgb(44.309998%,15.289307%,8.628845%);fill-opacity:1;" d="M 36.46875 93.183594 C 35.859375 94.277344 35.195312 95.003906 34.125 93.398438 C 32.777344 91.375 32.164062 88.929688 32.324219 86.5 C 32.355469 86.035156 32.414062 85.570312 32.597656 85.144531 C 33.011719 84.160156 34.050781 83.515625 35.117188 83.433594 C 36.179688 83.351562 37.246094 83.773438 38.070312 84.453125 C 38.390625 84.714844 38.6875 85.023438 38.84375 85.40625 C 38.980469 85.734375 39.003906 86.09375 39 86.449219 C 38.988281 88.351562 38.210938 90.125 37.25 91.734375 C 36.984375 92.183594 36.730469 92.714844 36.46875 93.183594 "/>
<path style=" stroke:none;fill-rule:nonzero;fill:rgb(96.859741%,66.268921%,56.858826%);fill-opacity:1;" d="M 35.976562 95.683594 C 35.589844 94.878906 34.4375 93.152344 33.566406 93.339844 C 32.699219 93.527344 32.484375 94.667969 32.550781 95.550781 C 32.601562 96.242188 32.726562 96.964844 33.175781 97.496094 C 33.617188 98.023438 34.480469 98.257812 35.015625 97.820312 "/>
<path style=" stroke:none;fill-rule:nonzero;fill:rgb(94.898987%,65.489197%,52.938843%);fill-opacity:1;" d="M 26.371094 146.808594 C 24.382812 146.074219 23.53125 144.257812 23.480469 140.429688 C 23.820312 125.363281 27.578125 113.949219 30.214844 113.011719 C 34.535156 111.484375 33.710938 118.941406 33.710938 118.941406 C 33.726562 118.835938 32.390625 118.121094 29.4375 135.34375 C 28.957031 138.160156 28.199219 141.878906 28.199219 145.574219 C 28.199219 146.464844 28.039062 147.425781 26.371094 146.808594 "/>
<g clip-path="url(#clip2)" clip-rule="nonzero">
<path style=" stroke:none;fill-rule:nonzero;fill:rgb(96.859741%,56.079102%,12.548828%);fill-opacity:1;" d="M 22.5 134.902344 C 23.535156 126.011719 26.390625 114.839844 30.214844 113.011719 C 34.367188 111.03125 34.257812 118.445312 34.257812 118.445312 C 34.273438 118.34375 32.84375 122.722656 30.207031 137.296875 C 27.644531 137.296875 24.292969 136.128906 22.5 134.902344 "/>
</g>
<path style=" stroke:none;fill-rule:nonzero;fill:rgb(94.898987%,65.489197%,52.938843%);fill-opacity:1;" d="M 29.277344 159.964844 C 29.277344 159.964844 32.203125 160.257812 32.296875 165.390625 C 32.296875 165.390625 31.636719 165.679688 30.773438 163.863281 C 30.152344 162.574219 29.65625 161.453125 29.425781 160.695312 C 29.332031 160.390625 29.277344 160.144531 29.277344 159.964844 "/>
<path style=" stroke:none;fill-rule:nonzero;fill:rgb(94.898987%,65.489197%,52.938843%);fill-opacity:1;" d="M 26.867188 160.84375 C 26.867188 160.84375 26.667969 163.664062 27.523438 165.886719 C 28.382812 168.109375 29.628906 168.449219 30.347656 168.496094 C 30.839844 168.527344 32.363281 168.574219 31.960938 167.769531 C 31.558594 166.964844 30.988281 162.945312 30.71875 161.964844 C 30.453125 160.984375 29.265625 159.804688 29.03125 159.816406 C 28.800781 159.828125 26.867188 160.84375 26.867188 160.84375 "/>
<path style=" stroke:none;fill-rule:nonzero;fill:rgb(94.898987%,65.489197%,52.938843%);fill-opacity:1;" d="M 23.480469 140.429688 C 24.335938 139.578125 25.53125 138.042969 27.171875 138.757812 C 28.550781 139.359375 27.992188 140.292969 28.210938 144.117188 L 28.210938 144.113281 C 28.085938 151.390625 29.148438 159.078125 30.46875 164.035156 C 31.945312 169.59375 27.933594 164.710938 27.933594 164.710938 C 25.316406 158.824219 23.484375 149.234375 23.480469 140.429688 "/>
<path style=" stroke:none;fill-rule:nonzero;fill:rgb(44.309998%,15.289307%,8.628845%);fill-opacity:1;" d="M 51.535156 86.097656 C 51.496094 86.480469 51.515625 86.867188 51.601562 87.207031 C 52.042969 89.003906 52.867188 90.722656 53.953125 92.214844 C 53.816406 92.035156 54.636719 89.15625 54.648438 88.664062 C 54.671875 87.539062 54.609375 86.074219 54.023438 85.078125 C 52.777344 82.953125 51.683594 84.496094 51.535156 86.097656 "/>
<path style=" stroke:none;fill-rule:nonzero;fill:rgb(49.01886%,17.248535%,9.799194%);fill-opacity:1;" d="M 36.246094 83.632812 C 36.925781 87.097656 41.019531 88.238281 44.054688 88.457031 C 45.585938 88.5625 47.144531 88.570312 48.621094 88.164062 C 52.289062 87.160156 55.007812 83.417969 54.828125 79.621094 C 52.886719 80.007812 50.882812 79.519531 49.007812 78.894531 C 47.128906 78.265625 45.273438 77.492188 43.304688 77.289062 C 41.035156 77.054688 38.695312 77.8125 37.328125 79.351562 C 36.382812 80.425781 35.902344 81.875 36.246094 83.632812 "/>
<path style=" stroke:none;fill-rule:nonzero;fill:rgb(49.01886%,17.248535%,9.799194%);fill-opacity:1;" d="M 49.871094 96.90625 C 48.941406 97.496094 47.851562 97.835938 46.753906 97.839844 C 44.355469 97.847656 42.175781 97.851562 39.882812 96.8125 C 39.175781 96.488281 38.492188 96.070312 38.003906 95.46875 C 37.285156 94.574219 36.019531 93.109375 35.132812 94.65625 C 34.507812 95.75 34.757812 97.808594 34.886719 99 C 35.214844 101.910156 36.367188 104.894531 38.429688 107.015625 C 41.648438 110.324219 47.054688 111.769531 51.054688 109.308594 C 51.644531 108.945312 52.242188 108.578125 52.6875 108.054688 C 53.121094 107.554688 53.390625 106.941406 53.636719 106.328125 C 55.492188 101.660156 55.941406 96.210938 53.746094 91.691406 C 52.910156 92.414062 52.488281 93.5625 52.019531 94.535156 C 51.542969 95.507812 50.785156 96.324219 49.871094 96.90625 "/>
<path style=" stroke:none;fill-rule:nonzero;fill:rgb(96.078491%,51.759338%,52.938843%);fill-opacity:1;" d="M 45.316406 97.609375 C 46.160156 98.507812 48.457031 99.679688 48.988281 98.167969 C 49.144531 97.730469 48.914062 97.246094 48.585938 96.914062 C 48.105469 96.4375 47.417969 96.109375 47.058594 95.519531 C 46.777344 95.0625 46.523438 94.367188 46.351562 93.863281 C 46.273438 93.625 46.21875 93.371094 46.070312 93.167969 C 45.925781 92.964844 45.652344 92.820312 45.421875 92.914062 C 45.265625 92.976562 45.164062 93.121094 45.082031 93.269531 C 44.390625 94.472656 44.347656 96.128906 45.109375 97.34375 C 45.160156 97.429688 45.230469 97.515625 45.316406 97.609375 "/>
<path style=" stroke:none;fill-rule:nonzero;fill:rgb(47.44873%,28.239441%,25.489807%);fill-opacity:1;" d="M 50.296875 93.78125 C 50.296875 93.78125 50.285156 93.714844 50.28125 93.605469 C 50.285156 93.550781 50.261719 93.488281 50.234375 93.425781 C 50.214844 93.367188 50.175781 93.304688 50.125 93.234375 C 50.085938 93.164062 50.011719 93.109375 49.949219 93.042969 C 49.882812 92.984375 49.792969 92.933594 49.710938 92.886719 C 49.621094 92.851562 49.527344 92.8125 49.433594 92.804688 C 49.34375 92.769531 49.222656 92.808594 49.167969 92.804688 C 49.050781 92.839844 48.921875 92.875 48.863281 92.929688 C 48.789062 92.960938 48.710938 93.042969 48.632812 93.105469 C 48.578125 93.183594 48.496094 93.25 48.453125 93.335938 C 48.398438 93.417969 48.351562 93.496094 48.324219 93.578125 C 48.253906 93.734375 48.207031 93.882812 48.199219 93.984375 C 48.1875 94.089844 48.171875 94.15625 48.171875 94.15625 C 48.171875 94.15625 48.148438 94.097656 48.121094 93.988281 C 48.101562 93.933594 48.089844 93.867188 48.089844 93.785156 C 48.082031 93.707031 48.074219 93.613281 48.097656 93.515625 C 48.105469 93.414062 48.132812 93.304688 48.183594 93.199219 C 48.214844 93.085938 48.289062 92.984375 48.359375 92.871094 C 48.453125 92.777344 48.527344 92.664062 48.667969 92.585938 C 48.808594 92.488281 48.921875 92.460938 49.039062 92.417969 C 49.222656 92.394531 49.355469 92.375 49.503906 92.417969 C 49.652344 92.4375 49.773438 92.511719 49.890625 92.578125 C 50 92.652344 50.097656 92.738281 50.171875 92.835938 C 50.242188 92.933594 50.308594 93.023438 50.332031 93.132812 C 50.351562 93.179688 50.363281 93.226562 50.378906 93.269531 C 50.386719 93.320312 50.382812 93.371094 50.382812 93.414062 C 50.386719 93.5 50.382812 93.570312 50.359375 93.617188 C 50.320312 93.722656 50.296875 93.78125 50.296875 93.78125 "/>
<path style=" stroke:none;fill-rule:nonzero;fill:rgb(47.44873%,28.239441%,25.489807%);fill-opacity:1;" d="M 43.644531 94.519531 C 43.644531 94.519531 43.632812 94.457031 43.628906 94.347656 C 43.632812 94.289062 43.609375 94.230469 43.582031 94.167969 C 43.5625 94.105469 43.523438 94.042969 43.472656 93.972656 C 43.433594 93.902344 43.359375 93.847656 43.296875 93.78125 C 43.230469 93.722656 43.140625 93.675781 43.058594 93.625 C 42.964844 93.589844 42.878906 93.550781 42.78125 93.542969 C 42.691406 93.511719 42.570312 93.550781 42.515625 93.542969 C 42.398438 93.582031 42.269531 93.617188 42.214844 93.667969 C 42.136719 93.703125 42.058594 93.785156 41.984375 93.84375 C 41.925781 93.925781 41.84375 93.988281 41.800781 94.078125 C 41.75 94.15625 41.703125 94.238281 41.671875 94.316406 C 41.601562 94.472656 41.554688 94.621094 41.546875 94.726562 C 41.535156 94.832031 41.519531 94.898438 41.519531 94.898438 C 41.519531 94.898438 41.5 94.839844 41.46875 94.730469 C 41.449219 94.675781 41.441406 94.605469 41.4375 94.527344 C 41.429688 94.445312 41.421875 94.355469 41.445312 94.253906 C 41.453125 94.152344 41.480469 94.046875 41.53125 93.9375 C 41.5625 93.824219 41.640625 93.722656 41.707031 93.613281 C 41.800781 93.515625 41.875 93.402344 42.019531 93.328125 C 42.15625 93.230469 42.269531 93.199219 42.386719 93.15625 C 42.574219 93.132812 42.703125 93.113281 42.851562 93.15625 C 43 93.175781 43.121094 93.25 43.238281 93.316406 C 43.347656 93.394531 43.445312 93.480469 43.519531 93.574219 C 43.589844 93.675781 43.65625 93.765625 43.679688 93.871094 C 43.699219 93.921875 43.710938 93.964844 43.726562 94.011719 C 43.730469 94.0625 43.730469 94.109375 43.730469 94.152344 C 43.734375 94.242188 43.730469 94.308594 43.707031 94.359375 C 43.671875 94.460938 43.644531 94.519531 43.644531 94.519531 "/>
<path style=" stroke:none;fill-rule:nonzero;fill:rgb(19.219971%,2.349854%,3.919983%);fill-opacity:1;" d="M 48.152344 100.523438 C 48.152344 100.523438 45.476562 101.957031 42.128906 99.503906 C 42.128906 99.503906 41.765625 102.363281 44.53125 103.234375 C 47.304688 104.097656 48.152344 100.523438 48.152344 100.523438 "/>
<path style=" stroke:none;fill-rule:nonzero;fill:rgb(100%,100%,100%);fill-opacity:1;" d="M 47.066406 101.519531 C 46.601562 102.03125 43.867188 101.496094 43.402344 100.953125 C 43.195312 100.714844 43.160156 100.445312 43.191406 100.167969 C 45 101.113281 46.519531 101.003906 47.382812 100.792969 C 47.3125 101.078125 47.214844 101.355469 47.066406 101.519531 "/>
<path style=" stroke:none;fill-rule:nonzero;fill:rgb(72.549438%,12.939453%,20.779419%);fill-opacity:1;" d="M 46.78125 102.855469 C 46.234375 103.296875 45.5 103.535156 44.53125 103.234375 C 43.777344 102.992188 43.257812 102.605469 42.898438 102.171875 C 44.066406 101.492188 45.714844 101.933594 46.78125 102.855469 "/>
<path style=" stroke:none;fill-rule:nonzero;fill:rgb(100%,100%,100%);fill-opacity:1;" d="M 47.835938 97.472656 C 47.835938 97.644531 47.976562 97.785156 48.152344 97.785156 C 48.324219 97.785156 48.46875 97.644531 48.46875 97.472656 C 48.46875 97.296875 48.324219 97.15625 48.152344 97.15625 C 47.976562 97.15625 47.835938 97.296875 47.835938 97.472656 "/>
<path style=" stroke:none;fill-rule:nonzero;fill:rgb(49.01886%,17.248535%,9.799194%);fill-opacity:1;" d="M 48.316406 91.039062 C 49.132812 90.871094 49.964844 90.957031 50.726562 91.304688 C 51.320312 91.574219 51.839844 90.695312 51.242188 90.421875 C 50.214844 89.957031 49.152344 89.828125 48.046875 90.054688 C 47.402344 90.1875 47.675781 91.171875 48.316406 91.039062 "/>
<path style=" stroke:none;fill-rule:nonzero;fill:rgb(49.01886%,17.248535%,9.799194%);fill-opacity:1;" d="M 42.78125 90.355469 C 41.667969 90.484375 40.683594 90.925781 39.859375 91.695312 C 39.378906 92.144531 40.101562 92.867188 40.585938 92.417969 C 41.191406 91.847656 41.949219 91.472656 42.78125 91.375 C 43.425781 91.296875 43.429688 90.277344 42.78125 90.355469 "/>
<path style=" stroke:none;fill-rule:nonzero;fill:rgb(15.289307%,24.308777%,33.729553%);fill-opacity:1;" d="M 44.917969 223.691406 L 51.195312 225.363281 L 51.914062 222.683594 L 45.632812 221.007812 L 44.917969 223.691406 "/>
<path style=" stroke:none;fill-rule:nonzero;fill:rgb(15.289307%,24.308777%,33.729553%);fill-opacity:1;" d="M 35.320312 224.894531 L 41.816406 224.894531 L 41.816406 222.121094 L 35.320312 222.121094 L 35.320312 224.894531 "/>
<path style=" stroke:none;fill-rule:nonzero;fill:rgb(11.369324%,17.649841%,25.099182%);fill-opacity:1;" d="M 45.148438 226.136719 L 44.058594 231.304688 L 61.699219 231.304688 C 61.699219 231.304688 61.480469 226.40625 51.273438 226.136719 L 45.148438 226.136719 "/>
<path style=" stroke:none;fill-rule:nonzero;fill:rgb(87.838745%,96.078491%,99.21875%);fill-opacity:1;" d="M 44.058594 232.804688 L 61.699219 232.804688 L 61.699219 231.304688 L 44.058594 231.304688 L 44.058594 232.804688 "/>
<path style=" stroke:none;fill-rule:nonzero;fill:rgb(15.289307%,24.308777%,33.729553%);fill-opacity:1;" d="M 35.71875 226.433594 L 34.628906 231.605469 L 52.273438 231.605469 C 52.273438 231.605469 52.054688 226.707031 41.847656 226.433594 L 35.71875 226.433594 "/>
<g clip-path="url(#clip3)" clip-rule="nonzero">
<path style=" stroke:none;fill-rule:nonzero;fill:rgb(87.838745%,96.078491%,99.21875%);fill-opacity:1;" d="M 34.628906 233.105469 L 52.273438 233.105469 L 52.273438 231.605469 L 34.628906 231.605469 L 34.628906 233.105469 "/>
</g>
<path style=" stroke:none;fill-rule:nonzero;fill:rgb(94.898987%,65.489197%,52.938843%);fill-opacity:1;" d="M 81.03125 148.824219 C 81.03125 148.824219 83.855469 149.519531 86.253906 149.078125 C 88.648438 148.636719 89.203125 147.480469 89.375 146.789062 C 89.492188 146.316406 89.789062 144.839844 88.90625 145.09375 C 88.023438 145.34375 83.855469 145.1875 82.816406 145.273438 C 81.777344 145.359375 80.382812 146.308594 80.351562 146.535156 C 80.324219 146.761719 81.03125 148.824219 81.03125 148.824219 "/>
<path style=" stroke:none;fill-rule:nonzero;fill:rgb(98.429871%,78.42865%,31.369019%);fill-opacity:1;" d="M 89.003906 172.121094 L 79.363281 125.015625 L 88.589844 123.125 L 92.058594 140.070312 L 92.980469 144.574219 L 91.972656 149.132812 L 94.691406 152.925781 L 95.457031 156.660156 L 94.289062 160.449219 L 96.898438 163.703125 L 97.570312 166.992188 L 98.230469 170.230469 L 94.621094 176.066406 L 89.003906 172.121094 "/>
<path style=" stroke:none;fill-rule:nonzero;fill:rgb(97.24884%,60.778809%,30.589294%);fill-opacity:1;" d="M 91.828125 144.808594 L 90.820312 149.367188 L 93.539062 153.160156 L 94.304688 156.898438 L 93.136719 160.6875 L 95.746094 163.941406 L 96.417969 167.226562 L 97.082031 170.46875 L 93.917969 175.574219 L 94.621094 176.066406 L 98.230469 170.230469 L 97.570312 166.992188 L 96.898438 163.703125 L 94.289062 160.449219 L 95.457031 156.660156 L 94.691406 152.925781 L 91.972656 149.132812 L 92.980469 144.574219 L 92.058594 140.070312 L 88.589844 123.125 L 87.4375 123.359375 L 90.90625 140.304688 L 91.828125 144.808594 "/>
<path style=" stroke:none;fill-rule:nonzero;fill:rgb(97.648621%,65.489197%,30.979919%);fill-opacity:1;" d="M 90.914062 169.691406 L 84.976562 140.691406 C 84.851562 140.066406 85.25 139.457031 85.875 139.328125 L 85.917969 139.320312 C 86.542969 139.191406 87.152344 139.597656 87.28125 140.222656 L 93.21875 169.21875 C 93.34375 169.847656 92.941406 170.457031 92.320312 170.585938 L 92.277344 170.59375 C 91.652344 170.722656 91.042969 170.316406 90.914062 169.691406 "/>
<path style=" stroke:none;fill-rule:nonzero;fill:rgb(94.898987%,65.489197%,52.938843%);fill-opacity:1;" d="M 80.546875 146.320312 C 80.546875 146.320312 81.335938 143.523438 86.554688 144.339844 C 86.554688 144.339844 86.734375 145.035156 84.75 145.558594 C 83.335938 145.933594 82.117188 146.214844 81.3125 146.308594 C 80.984375 146.34375 80.726562 146.351562 80.546875 146.320312 "/>
<path style=" stroke:none;fill-rule:nonzero;fill:rgb(98.429871%,78.42865%,31.369019%);fill-opacity:1;" d="M 79.648438 117.140625 C 79.332031 115.597656 80.324219 114.09375 81.867188 113.777344 C 83.410156 113.460938 84.914062 114.453125 85.230469 115.996094 C 85.546875 117.539062 84.550781 119.042969 83.011719 119.359375 C 81.46875 119.675781 79.960938 118.679688 79.648438 117.140625 Z M 98.375 121.121094 C 96.746094 113.171875 88.980469 108.046875 81.027344 109.671875 C 73.074219 111.300781 67.949219 119.066406 69.578125 127.019531 C 71.207031 134.96875 78.96875 140.097656 86.921875 138.46875 C 94.875 136.839844 100 129.074219 98.375 121.121094 "/>
<path style=" stroke:none;fill-rule:nonzero;fill:rgb(99.21875%,88.62915%,32.159424%);fill-opacity:1;" d="M 96.613281 131.5625 C 97.859375 129.457031 98.589844 127.039062 98.664062 124.511719 C 94.121094 121.492188 89.625 118.40625 85.054688 115.4375 C 85.132812 115.613281 85.1875 115.800781 85.230469 115.996094 C 85.546875 117.539062 84.550781 119.042969 83.011719 119.359375 C 81.46875 119.675781 79.960938 118.679688 79.648438 117.140625 C 79.332031 115.597656 80.324219 114.09375 81.867188 113.777344 C 82.039062 113.742188 82.207031 113.726562 82.378906 113.722656 C 81.753906 113.328125 81.136719 112.929688 80.511719 112.542969 C 79.566406 111.957031 78.617188 111.375 77.671875 110.792969 C 75.425781 111.859375 73.527344 113.460938 72.105469 115.40625 C 80.273438 120.792969 88.445312 126.175781 96.613281 131.5625 "/>
<path style=" stroke:none;fill-rule:nonzero;fill:rgb(99.21875%,88.62915%,32.159424%);fill-opacity:1;" d="M 94.144531 134.675781 C 94.640625 134.199219 95.097656 133.691406 95.519531 133.152344 C 87.371094 127.78125 79.222656 122.414062 71.074219 117.039062 C 70.75 117.625 70.472656 118.238281 70.234375 118.867188 C 78.203125 124.140625 86.171875 129.410156 94.144531 134.675781 "/>
<path style=" stroke:none;fill-rule:nonzero;fill:rgb(97.24884%,64.309692%,30.589294%);fill-opacity:1;" d="M 72.25 126.46875 C 70.925781 119.996094 75.101562 113.671875 81.574219 112.347656 C 88.050781 111.019531 94.375 115.195312 95.695312 121.667969 C 97.023438 128.144531 92.851562 134.46875 86.375 135.796875 C 79.898438 137.121094 73.578125 132.945312 72.25 126.46875 Z M 96.652344 121.472656 C 95.21875 114.472656 88.382812 109.960938 81.378906 111.394531 C 74.378906 112.828125 69.867188 119.664062 71.296875 126.667969 C 72.730469 133.667969 79.566406 138.179688 86.566406 136.746094 C 93.574219 135.3125 98.085938 128.476562 96.652344 121.472656 "/>
<path style=" stroke:none;fill-rule:nonzero;fill:rgb(11.369324%,17.649841%,25.099182%);fill-opacity:1;" d="M 44.105469 226.285156 L 43.027344 231.398438 L 60.464844 231.398438 C 60.464844 231.398438 60.25 226.554688 50.160156 226.285156 L 44.105469 226.285156 "/>
<path style=" stroke:none;fill-rule:nonzero;fill:rgb(87.838745%,96.078491%,99.21875%);fill-opacity:1;" d="M 43.027344 232.878906 L 60.464844 232.878906 L 60.464844 231.398438 L 43.027344 231.398438 L 43.027344 232.878906 "/>
<path style=" stroke:none;fill-rule:nonzero;fill:rgb(15.289307%,24.308777%,33.729553%);fill-opacity:1;" d="M 34.785156 226.582031 L 33.710938 231.695312 L 51.144531 231.695312 C 51.144531 231.695312 50.929688 226.847656 40.839844 226.582031 L 34.785156 226.582031 "/>
<g clip-path="url(#clip4)" clip-rule="nonzero">
<path style=" stroke:none;fill-rule:nonzero;fill:rgb(87.838745%,96.078491%,99.21875%);fill-opacity:1;" d="M 33.710938 233.171875 L 51.144531 233.171875 L 51.144531 231.695312 L 33.710938 231.695312 L 33.710938 233.171875 "/>
</g>
</g>
</svg>
